<?xml version="1.0" encoding="utf-8"?>
<!-- Generator: Adobe Illustrator 19.2.1, SVG Export Plug-In . SVG Version: 6.00 Build 0)  -->
<svg version="1.1" id="layer" xmlns="http://www.w3.org/2000/svg" xmlns:xlink="http://www.w3.org/1999/xlink" x="0px" y="0px"
	 viewBox="0 0 652 652" style="enable-background:new 0 0 652 652;" xml:space="preserve">
<style type="text/css">
	.st0{fill:#2B5C7D;}
</style>
<path class="st0" d="M154.8,291h-26.9c-0.8,0-1.2-0.6-1.2-1.2v-13.4c0-0.8,0.6-1.2,1.2-1.2H202c0.8,0,1.2,0.6,1.2,1.2v13.4
	c0,0.8-0.6,1.2-1.2,1.2h-27.1c-0.8,0-1.2,0.6-1.2,1.2v73.9c0,0.8-0.6,1.2-1.2,1.2h-15.1c-0.8,0-1.2-0.6-1.2-1.2v-73.9
	C156,291.6,155.6,291,154.8,291 M263.4,316l24.8-40.3c0.2-0.4,0.6-0.6,1-0.6h17.5v0.8l-35.4,57.4c-0.2,0.2-0.2,0.4-0.2,0.8v32
	c0,0.8-0.6,1.4-1.4,1.4h-14.9c-0.8,0-1.4-0.6-1.4-1.4v-32c0-0.2,0-0.6-0.2-0.8l-34-57.4v-0.8h17.3c0.4,0,0.8,0.2,1.2,0.6l23.8,40.1
	C261.8,316.8,263,316.8,263.4,316 M373.1,340.4h-25.2c-0.8,0-1.4,0.6-1.4,1.4v24.6c0,0.8-0.6,1.4-1.4,1.4h-14.9
	c-0.8,0-1.4-0.6-1.4-1.4v-89.9c0-0.8,0.6-1.4,1.4-1.4c14.2,0,28.5-0.2,42.7-0.2C418.7,275.1,418.7,340.4,373.1,340.4 M346.7,323.1
	c0,0.8,0.6,1.4,1.4,1.4h25.2c22.4,0,22.4-32.6,0-32.6h-25.2c-0.8,0-1.4,0.6-1.4,1.4V323.1z M517.4,321.9
	c-0.4,23.8-15.1,47.8-48,47.8s-47.8-23.4-47.8-47.8c0-24.2,15.7-48.6,47.8-48.6C501.7,273.3,517.6,297.7,517.4,321.9 M438.9,322.3
	c0.4,15.1,8.7,31.5,30.7,31.5c22,0,30.3-16.3,30.5-31.5c0.2-15.7-8.7-33.2-30.7-33.2C447.6,289.1,438.6,306.8,438.9,322.3
	 M604.3,275.1h14.9c0.8,0,1.4,0.6,1.4,1.4v89.9c0,0.8-0.6,1.4-1.4,1.4h-9.6l-46.8-59.4c-0.8-1-2.4-0.4-2.4,0.8v57.2
	c0,0.8-0.6,1.4-1.4,1.4h-14.9c-0.8,0-1.4-0.6-1.4-1.4v-89.9c0-0.8,0.6-1.4,1.4-1.4h12.4c0.4,0,0.8,0.2,1,0.4l43.1,53.9
	c0.8,1,2.4,0.4,2.4-0.8v-52.3C603.1,275.7,603.7,275.1,604.3,275.1 M20.7,365.5l40.5-89.7c0.2-0.4,0.8-0.8,1.2-0.8h17.5
	c0.6,0,1,0.4,1.2,0.8l40.5,89.7c0.4,1-0.2,2-1.2,2h-16.1c-0.6,0-1-0.4-1.2-0.8l-30.7-69.4c-0.4-1-2-1.2-2.6,0l-22,49.4
	c-0.2,0.4,0.2,0.8,0.6,0.6l22.4-9.6c0.6-0.2,1.4,0,1.8,0.8l5.3,12c0.4,0.8,0,1.6-0.8,1.8l-35.4,15.1H21.9
	C20.9,367.5,20.3,366.3,20.7,365.5"/>
</svg>
